<svg xmlns="http://www.w3.org/2000/svg" version="1.1" xmlns:xlink="http://www.w3.org/1999/xlink" xmlns:svgjs="http://svgjs.dev/svgjs" width="1500" height="1500" viewBox="0 0 1500 1500"><rect width="1500" height="1500" fill="#557733"></rect><g transform="matrix(0.6666666666666666,0,0,0.6666666666666666,249.39393939393938,567.4080474148698)"><svg viewBox="0 0 396 145" data-background-color="#557733" preserveAspectRatio="xMidYMid meet" height="549" width="1500" xmlns="http://www.w3.org/2000/svg" xmlns:xlink="http://www.w3.org/1999/xlink"><g id="tight-bounds" transform="matrix(1,0,0,1,0.2400000000000091,-0.16165812884185016)"><svg viewBox="0 0 395.52 145.3233162576837" height="145.3233162576837" width="395.52"><g><svg viewBox="0 0 397.4975999999999 146.0499328389721" height="145.3233162576837" width="395.52"><g><rect width="397.4975999999999" height="4.177863965309977" x="0" y="74.9614554592024" fill="#f9f6ed" opacity="1" stroke-width="0" stroke="transparent" fill-opacity="1" class="rect-yte-0" data-fill-palette-color="primary" rx="1%" id="yte-0" data-palette-color="#f9f6ed"></rect></g><g><rect width="397.4975999999999" height="4.177863965309977" x="0" y="84.60772775606993" fill="#f9f6ed" opacity="1" stroke-width="0" stroke="transparent" fill-opacity="1" class="rect-yte-1" data-fill-palette-color="primary" rx="1%" id="yte-1" data-palette-color="#f9f6ed"></rect></g><g transform="matrix(1,0,0,1,0.9887999999999693,99.72240838449504)"><svg viewBox="0 0 395.52 46.32752445447704" height="46.32752445447704" width="395.52"><g id="textblocktransform"><svg viewBox="0 0 395.52 46.32752445447704" height="46.32752445447704" width="395.52" id="textblock"><g><svg viewBox="0 0 395.52 46.32752445447704" height="46.32752445447704" width="395.52"><g transform="matrix(1,0,0,1,0,0)"><svg width="395.52" viewBox="2 -34.6 398.66 46.7" height="46.32752445447704" data-palette-color="#f9f6ed"><path d="M15.85 0.6Q11.8 0.6 8.65-1.35 5.5-3.3 3.75-6.83 2-10.35 2-14.85L2-14.85Q2-19.75 4.17-23.78 6.35-27.8 10.13-30.13 13.9-32.45 18.45-32.45L18.45-32.45Q22.6-32.45 25.8-30.5 29-28.55 30.8-25.05 32.6-21.55 32.6-17.05L32.6-17.05Q32.6-12.15 30.38-8.1 28.15-4.05 24.33-1.73 20.5 0.6 15.85 0.6L15.85 0.6ZM17.4-1.95Q20.55-1.95 23-3.6 25.45-5.25 26.8-8.2 28.15-11.15 28.15-14.95L28.15-14.95Q28.15-19.2 26.7-22.48 25.25-25.75 22.68-27.6 20.1-29.45 16.75-29.45L16.75-29.45Q13.7-29.45 11.33-27.8 8.95-26.15 7.63-23.2 6.3-20.25 6.3-16.45L6.3-16.45Q6.3-12.2 7.7-8.93 9.1-5.65 11.63-3.8 14.15-1.95 17.4-1.95L17.4-1.95ZM37.55-1.8Q39.05-1.95 39.55-2.78 40.05-3.6 40.05-5.95L40.05-5.95 40.05-16.95Q40.05-18.6 39.6-19.3 39.15-20 38.15-20L38.15-20Q37.75-20 37.47-19.95 37.2-19.9 37.1-19.85L37.1-19.85 36.85-20.2 37-21.75Q38.9-22.1 41.02-22.6 43.15-23.1 43.75-23.25L43.75-23.25 44.1-22.95Q44-22.5 43.8-20.88 43.6-19.25 43.65-17.8L43.65-17.8 43.85-17.65Q45.35-20 47.37-21.5 49.4-23 50.9-23L50.9-23Q51.6-23 51.97-22.93 52.35-22.85 52.45-22.8L52.45-22.8 52.6-22.6Q52.5-21.9 52.17-19.63 51.85-17.35 51.8-15.45L51.8-15.45 49.85-15.3Q49.85-17.35 49.57-18.03 49.3-18.7 48.5-18.7L48.5-18.7Q47.4-18.7 46.15-17.78 44.9-16.85 43.85-15.3L43.85-15.3Q43.8-13.85 43.65-10.5 43.5-7.15 43.45-5.1L43.45-5.1Q43.45-3.4 43.95-2.8 44.45-2.2 45.85-2.2L45.85-2.2Q46.5-2.2 47.15-2.25 47.8-2.3 48.05-2.3L48.05-2.3 48.1-2.1 47.65 0.1Q47.15 0.1 45.65 0.05 44.15 0 42.55 0L42.55 0Q40.7 0 39.2 0.08 37.7 0.15 37.3 0.2L37.3 0.2 37.55-1.8ZM77.5-21.15Q76.55-21 73.2-20.7L73.2-20.7 73-20.45Q75-18.25 75-15.35L75-15.35Q75-12.95 73.67-10.9 72.34-8.85 70.09-7.68 67.84-6.5 65.15-6.5L65.15-6.5Q63.7-6.5 62.35-6.9L62.35-6.9Q61.2-6.25 60.7-5.7 60.2-5.15 60.2-4.6L60.2-4.6Q60.2-3.45 61.75-3 63.3-2.55 66.59-2.15L66.59-2.15Q69.84-1.75 71.84-1.33 73.84-0.9 75.3 0.2 76.75 1.3 76.75 3.25L76.75 3.25Q76.75 5.45 74.97 7.5 73.2 9.55 70.32 10.83 67.45 12.1 64.4 12.1L64.4 12.1Q60.85 12.1 58.82 10.33 56.8 8.55 56.8 5.45L56.8 5.45Q57.5 4.55 58.82 3.35 60.15 2.15 61.75 0.95L61.75 0.95 61.75 0.65Q59.15 0.2 57.75-1.05 56.35-2.3 56.3-4.25L56.3-4.25Q58.25-6.1 60.5-7.45L60.5-7.45 60.5-7.65Q58.75-8.65 57.77-10.33 56.8-12 56.8-14.1L56.8-14.1Q56.8-16.55 58.07-18.63 59.35-20.7 61.47-21.95 63.6-23.2 66.09-23.2L66.09-23.2Q67.25-23.2 68.95-22.9L68.95-22.9Q70.2-22.65 71-22.65L71-22.65Q73.25-22.9 77.9-24.15L77.9-24.15 78.05-23.95 77.5-21.15ZM66.3-8.7Q68.59-8.7 69.92-10.15 71.25-11.6 71.25-14.15L71.25-14.15Q71.25-17.05 69.65-18.85 68.05-20.65 65.5-20.65L65.5-20.65Q63.2-20.65 61.87-19.15 60.55-17.65 60.55-15.1L60.55-15.1Q60.55-12.25 62.15-10.48 63.75-8.7 66.3-8.7L66.3-8.7ZM63.9 1.05Q62.4 2.1 61.6 3.38 60.8 4.65 60.8 5.9L60.8 5.9Q60.8 7.6 62.25 8.63 63.7 9.65 66.09 9.65L66.09 9.65Q68 9.65 69.72 8.97 71.45 8.3 72.5 7.15 73.55 6 73.55 4.7L73.55 4.7Q73.55 3.7 72.8 3.1 72.05 2.5 70.02 2.05 68 1.6 63.9 1.05L63.9 1.05ZM96.74 0.6Q92.69 0.6 92.29-3.45L92.29-3.45 92.09-3.5Q90.29-1.7 88.82-0.65 87.34 0.4 86.59 0.4L86.59 0.4Q83.79 0.4 81.99-1.35 80.19-3.1 80.19-5.8L80.19-5.8Q80.19-7.25 80.92-8.35 81.64-9.45 82.84-9.8L82.84-9.8 92.34-12.4 92.39-14.6Q92.39-17.1 91.24-18.5 90.09-19.9 87.99-19.9L87.99-19.9Q86.59-19.9 85.04-19.25 83.49-18.6 81.99-17.4L81.99-17.4 81.74-17.55 81.14-19.7Q83.49-21.05 85.87-22.13 88.24-23.2 89.29-23.2L89.29-23.2Q92.54-23.2 94.39-21.5 96.24-19.8 96.24-16.75L96.24-16.75Q96.24-15.65 95.89-12.25L95.89-12.25Q95.34-6.75 95.34-5.25L95.34-5.25Q95.34-4.15 95.89-3.55 96.44-2.95 97.39-2.95L97.39-2.95Q98.19-2.95 99.04-3.33 99.89-3.7 100.39-4.2L100.39-4.2 101.09-3.4Q100.34-2.15 99.17-0.98 97.99 0.2 96.74 0.6L96.74 0.6ZM87.44-3Q88.39-3 89.67-3.68 90.94-4.35 91.99-5.4L91.99-5.4 92.24-10.5 85.44-8.45Q83.99-8 83.99-6.35L83.99-6.35Q83.99-4.9 84.97-3.95 85.94-3 87.44-3L87.44-3ZM117.79-1.45Q119.29-1.85 119.94-2.63 120.59-3.4 120.59-4.7L120.59-4.7 120.79-14.6Q120.79-17.1 119.72-18.45 118.64-19.8 116.64-19.8L116.64-19.8Q115.04-19.8 113.39-18.98 111.74-18.15 110.49-17.2L110.49-17.2Q110.04-6.85 110.04-4.9L110.04-4.9Q110.04-3.35 110.44-2.73 110.84-2.1 111.84-2.1L111.84-2.1Q112.39-2.1 112.89-2.15 113.39-2.2 113.59-2.2L113.59-2.2 113.69-2 113.24 0.15Q112.79 0.1 111.49 0.05 110.19 0 108.69 0L108.69 0Q107.39 0 105.81 0.13 104.24 0.25 103.74 0.3L103.74 0.3 103.99-1.75Q105.44-2 106.04-2.65 106.64-3.3 106.64-4.7L106.64-4.7 106.64-16.9Q106.64-18.6 106.09-19.28 105.54-19.95 104.19-19.95L104.19-19.95 103.64-19.95 103.49-20.15 103.64-21.8Q105.79-22.15 107.91-22.63 110.04-23.1 110.64-23.25L110.64-23.25 110.94-22.85Q110.84-22.55 110.64-21.58 110.44-20.6 110.39-19.55L110.39-19.55 110.49-19.4Q116.19-23.2 117.84-23.2L117.84-23.2Q120.99-23.2 122.84-21.45 124.69-19.7 124.69-16.75L124.69-16.75Q124.69-16.25 124.39-12.15L124.39-12.15Q123.99-6.95 123.99-4.9L123.99-4.9Q123.99-3.45 124.39-2.78 124.79-2.1 125.74-2.1L125.74-2.1Q126.29-2.1 126.79-2.15 127.29-2.2 127.49-2.2L127.49-2.2 127.59-2 127.19 0.15Q126.74 0.1 125.49 0.05 124.24 0 122.74 0L122.74 0Q121.44 0 119.77 0.25 118.09 0.5 117.59 0.6L117.59 0.6 117.79-1.45ZM143.69 0.6Q142.94 0.5 140.51 0.25 138.09 0 136.49 0L136.49 0Q134.94 0 133.11 0.25 131.29 0.5 130.74 0.6L130.74 0.6 131.04-1.7Q133.34-2.15 134.14-3.03 134.94-3.9 134.94-6L134.94-6 134.99-27Q134.99-28.6 134.61-29.15 134.24-29.7 133.14-29.7L133.14-29.7Q132.64-29.7 132.14-29.65 131.64-29.6 131.44-29.6L131.44-29.6 131.34-29.8 131.69-32Q132.24-31.95 133.79-31.9 135.34-31.85 136.94-31.85L136.94-31.85Q139.09-31.85 141.39-31.93 143.69-32 144.54-32.05L144.54-32.05Q149.34-32.05 153.09-30.18 156.84-28.3 158.91-24.9 160.99-21.5 160.99-17.1L160.99-17.1Q160.99-12.2 158.69-8.15 156.39-4.1 152.44-1.75 148.49 0.6 143.69 0.6L143.69 0.6ZM141.09-29.6Q140.04-29.6 139.69-29.38 139.34-29.15 139.29-28.5L139.29-28.5Q138.54-9.25 138.54-6.55L138.54-6.55Q138.54-4.65 139.06-3.7 139.59-2.75 140.91-2.35 142.24-1.95 144.84-1.95L144.84-1.95Q150.24-1.95 153.34-5.68 156.44-9.4 156.44-15.9L156.44-15.9Q156.44-22.5 152.46-26.05 148.49-29.6 141.09-29.6L141.09-29.6ZM174.49 0.6Q171.64 0.6 169.44-0.8 167.24-2.2 166.01-4.73 164.79-7.25 164.79-10.5L164.79-10.5Q164.79-14 166.31-16.93 167.84-19.85 170.49-21.53 173.14-23.2 176.39-23.2L176.39-23.2Q179.19-23.2 181.41-21.8 183.64-20.4 184.86-17.88 186.09-15.35 186.09-12.1L186.09-12.1Q186.09-8.6 184.56-5.68 183.04-2.75 180.39-1.07 177.74 0.6 174.49 0.6L174.49 0.6ZM175.89-1.85Q178.69-1.85 180.34-4.13 181.99-6.4 181.99-10.3L181.99-10.3Q181.99-13.25 181.09-15.58 180.19-17.9 178.56-19.2 176.94-20.5 174.89-20.5L174.89-20.5Q172.09-20.5 170.44-18.2 168.79-15.9 168.79-11.95L168.79-11.95Q168.79-9 169.69-6.7 170.59-4.4 172.19-3.13 173.79-1.85 175.89-1.85L175.89-1.85ZM204.23-1.45Q205.73-1.85 206.38-2.63 207.03-3.4 207.03-4.7L207.03-4.7 207.23-14.6Q207.23-17.1 206.16-18.45 205.08-19.8 203.08-19.8L203.08-19.8Q201.48-19.8 199.83-18.98 198.18-18.15 196.93-17.2L196.93-17.2Q196.48-6.85 196.48-4.9L196.48-4.9Q196.48-3.35 196.88-2.73 197.28-2.1 198.28-2.1L198.28-2.1Q198.83-2.1 199.33-2.15 199.83-2.2 200.03-2.2L200.03-2.2 200.13-2 199.68 0.15Q199.23 0.1 197.93 0.05 196.63 0 195.13 0L195.13 0Q193.83 0 192.26 0.13 190.68 0.25 190.18 0.3L190.18 0.3 190.43-1.75Q191.88-2 192.48-2.65 193.08-3.3 193.08-4.7L193.08-4.7 193.08-16.9Q193.08-18.6 192.53-19.28 191.98-19.95 190.63-19.95L190.63-19.95 190.08-19.95 189.93-20.15 190.08-21.8Q192.23-22.15 194.36-22.63 196.48-23.1 197.08-23.25L197.08-23.25 197.38-22.85Q197.28-22.55 197.08-21.58 196.88-20.6 196.83-19.55L196.83-19.55 196.93-19.4Q202.63-23.2 204.28-23.2L204.28-23.2Q207.43-23.2 209.28-21.45 211.13-19.7 211.13-16.75L211.13-16.75Q211.13-16.25 210.83-12.15L210.83-12.15Q210.43-6.95 210.43-4.9L210.43-4.9Q210.43-3.45 210.83-2.78 211.23-2.1 212.18-2.1L212.18-2.1Q212.73-2.1 213.23-2.15 213.73-2.2 213.93-2.2L213.93-2.2 214.03-2 213.63 0.15Q213.18 0.1 211.93 0.05 210.68 0 209.18 0L209.18 0Q207.88 0 206.21 0.25 204.53 0.5 204.03 0.6L204.03 0.6 204.23-1.45ZM233.88 0.6Q229.83 0.6 229.43-3.45L229.43-3.45 229.23-3.5Q227.43-1.7 225.96-0.65 224.48 0.4 223.73 0.4L223.73 0.4Q220.93 0.4 219.13-1.35 217.33-3.1 217.33-5.8L217.33-5.8Q217.33-7.25 218.06-8.35 218.78-9.45 219.98-9.8L219.98-9.8 229.48-12.4 229.53-14.6Q229.53-17.1 228.38-18.5 227.23-19.9 225.13-19.9L225.13-19.9Q223.73-19.9 222.18-19.25 220.63-18.6 219.13-17.4L219.13-17.4 218.88-17.55 218.28-19.7Q220.63-21.05 223.01-22.13 225.38-23.2 226.43-23.2L226.43-23.2Q229.68-23.2 231.53-21.5 233.38-19.8 233.38-16.75L233.38-16.75Q233.38-15.65 233.03-12.25L233.03-12.25Q232.48-6.75 232.48-5.25L232.48-5.25Q232.48-4.15 233.03-3.55 233.58-2.95 234.53-2.95L234.53-2.95Q235.33-2.95 236.18-3.33 237.03-3.7 237.53-4.2L237.53-4.2 238.23-3.4Q237.48-2.15 236.31-0.98 235.13 0.2 233.88 0.6L233.88 0.6ZM224.58-3Q225.53-3 226.81-3.68 228.08-4.35 229.13-5.4L229.13-5.4 229.38-10.5 222.58-8.45Q221.13-8 221.13-6.35L221.13-6.35Q221.13-4.9 222.11-3.95 223.08-3 224.58-3L224.58-3ZM248.88 0.6Q245.48 0.6 244.08-0.78 242.68-2.15 242.68-5.45L242.68-5.45 242.68-17.75Q242.68-19.1 242.08-19.65 241.48-20.2 239.83-20.25L239.83-20.25 239.63-20.55 239.88-22.05Q241.33-22.75 242.7-23.78 244.08-24.8 244.95-25.58 245.83-26.35 246.08-26.6L246.08-26.6 247.08-26.2Q247.03-25.95 246.93-25 246.83-24.05 246.68-22.45L246.68-22.45 254.03-22.6 254.18-22.45 253.73-19.8 246.48-19.95Q246.13-14.45 246.13-7.45L246.13-7.45Q246.13-4.9 247-3.85 247.88-2.8 250.03-2.8L250.03-2.8Q250.78-2.8 251.53-3 252.28-3.2 252.78-3.43 253.28-3.65 253.43-3.7L253.43-3.7 253.93-2.4Q253.63-2.15 252.65-1.45 251.68-0.75 250.55-0.08 249.43 0.6 248.88 0.6L248.88 0.6ZM257.28 0.6L257.48-1.45Q258.98-1.85 259.63-2.63 260.28-3.4 260.28-4.7L260.28-4.7 260.28-17.4Q260.28-20.1 258.43-20.1L258.43-20.1Q258.08-20.1 257.68-20.03 257.28-19.95 257.18-19.9L257.18-19.9 257.38-21.75Q259.48-22.05 261.7-22.55 263.93-23.05 264.58-23.2L264.58-23.2 264.83-22.6Q264.38-21.55 264.03-16.18 263.68-10.8 263.68-4.9L263.68-4.9Q263.68-3.45 264.08-2.78 264.48-2.1 265.43-2.1L265.43-2.1Q265.98-2.1 266.48-2.15 266.98-2.2 267.18-2.2L267.18-2.2 267.28-2 266.88 0.15Q266.43 0.1 265.18 0.05 263.93 0 262.43 0L262.43 0Q261.13 0 259.45 0.25 257.78 0.5 257.28 0.6L257.28 0.6ZM261.68-29.1Q260.53-29.1 259.88-29.85 259.23-30.6 259.23-31.65L259.23-31.65Q259.23-32.85 260.08-33.73 260.93-34.6 262.18-34.6L262.18-34.6Q263.33-34.6 263.98-33.85 264.63-33.1 264.63-32.05L264.63-32.05Q264.63-30.85 263.78-29.98 262.93-29.1 261.68-29.1L261.68-29.1ZM280.67 0.6Q277.82 0.6 275.62-0.8 273.42-2.2 272.2-4.73 270.97-7.25 270.97-10.5L270.97-10.5Q270.97-14 272.5-16.93 274.02-19.85 276.67-21.53 279.32-23.2 282.57-23.2L282.57-23.2Q285.37-23.2 287.6-21.8 289.82-20.4 291.05-17.88 292.27-15.35 292.27-12.1L292.27-12.1Q292.27-8.6 290.75-5.68 289.22-2.75 286.57-1.07 283.92 0.6 280.67 0.6L280.67 0.6ZM282.07-1.85Q284.87-1.85 286.52-4.13 288.17-6.4 288.17-10.3L288.17-10.3Q288.17-13.25 287.27-15.58 286.37-17.9 284.75-19.2 283.12-20.5 281.07-20.5L281.07-20.5Q278.27-20.5 276.62-18.2 274.97-15.9 274.97-11.95L274.97-11.95Q274.97-9 275.87-6.7 276.77-4.4 278.37-3.13 279.97-1.85 282.07-1.85L282.07-1.85ZM310.42-1.45Q311.92-1.85 312.57-2.63 313.22-3.4 313.22-4.7L313.22-4.7 313.42-14.6Q313.42-17.1 312.35-18.45 311.27-19.8 309.27-19.8L309.27-19.8Q307.67-19.8 306.02-18.98 304.37-18.15 303.12-17.2L303.12-17.2Q302.67-6.85 302.67-4.9L302.67-4.9Q302.67-3.35 303.07-2.73 303.47-2.1 304.47-2.1L304.47-2.1Q305.02-2.1 305.52-2.15 306.02-2.2 306.22-2.2L306.22-2.2 306.32-2 305.87 0.15Q305.42 0.1 304.12 0.05 302.82 0 301.32 0L301.32 0Q300.02 0 298.45 0.13 296.87 0.25 296.37 0.3L296.37 0.3 296.62-1.75Q298.07-2 298.67-2.65 299.27-3.3 299.27-4.7L299.27-4.7 299.27-16.9Q299.27-18.6 298.72-19.28 298.17-19.95 296.82-19.95L296.82-19.95 296.27-19.95 296.12-20.15 296.27-21.8Q298.42-22.15 300.55-22.63 302.67-23.1 303.27-23.25L303.27-23.25 303.57-22.85Q303.47-22.55 303.27-21.58 303.07-20.6 303.02-19.55L303.02-19.55 303.12-19.4Q308.82-23.2 310.47-23.2L310.47-23.2Q313.62-23.2 315.47-21.45 317.32-19.7 317.32-16.75L317.32-16.75Q317.32-16.25 317.02-12.15L317.02-12.15Q316.62-6.95 316.62-4.9L316.62-4.9Q316.62-3.45 317.02-2.78 317.42-2.1 318.37-2.1L318.37-2.1Q318.92-2.1 319.42-2.15 319.92-2.2 320.12-2.2L320.12-2.2 320.22-2 319.82 0.15Q319.37 0.1 318.12 0.05 316.87 0 315.37 0L315.37 0Q314.07 0 312.4 0.25 310.72 0.5 310.22 0.6L310.22 0.6 310.42-1.45ZM338.07 0.5L337.92 0.15 338.12-1.8Q340.67-2 341.62-2.4 342.57-2.8 342.57-3.7L342.57-3.7Q342.57-4.7 342.12-6.1L342.12-6.1 340.47-11.55Q339.27-11.6 335.27-11.6L335.27-11.6Q332.87-11.6 329.82-11.2L329.82-11.2 327.97-6Q327.52-4.65 327.52-4.05L327.52-4.05Q327.52-2.95 328.22-2.48 328.92-2 330.52-2L330.52-2 333.37-2 333.47-1.8 333.17 0.35Q332.57 0.3 330.42 0.15 328.27 0 326.22 0L326.22 0Q324.37 0 322.79 0.05 321.22 0.1 320.72 0.15L320.72 0.15 321.12-2.2Q322.52-2.35 323.37-3.18 324.22-4 325.02-6.05L325.02-6.05 334.77-31.6 337.92-32.45 338.32-32.45Q338.62-31.25 339.84-26.9 341.07-22.55 342.84-16.6 344.62-10.65 346.27-5.65L346.27-5.65Q346.87-3.8 347.87-3.05 348.87-2.3 351.07-2.1L351.07-2.1 351.17-1.9 350.82 0.15Q350.22 0.15 348.64 0.08 347.07 0 345.52 0L345.52 0Q343.12 0 340.89 0.2 338.67 0.4 338.07 0.5L338.07 0.5ZM330.72-13.65L335.12-13.65Q336.92-13.65 339.77-13.9L339.77-13.9 335.82-27 335.47-27 330.72-13.65ZM351.92 11.85L352.17 9.9Q353.27 9.75 353.79 9.45 354.31 9.15 354.52 8.45 354.72 7.75 354.72 6.3L354.72 6.3Q354.72 4.2 354.77 2.7L354.77 2.7 354.81-2 354.81-16.9Q354.81-18.6 354.27-19.28 353.72-19.95 352.37-19.95L352.37-19.95 351.81-19.95 351.67-20.15 351.81-21.8Q353.97-22.15 356.09-22.63 358.22-23.1 358.81-23.25L358.81-23.25 359.12-22.85Q359.06-22.6 358.89-21.78 358.72-20.95 358.62-20.15L358.62-20.15 358.81-19.8Q363.52-23.05 364.62-23.05L364.62-23.05Q367.47-23.05 369.67-21.73 371.87-20.4 373.06-18 374.27-15.6 374.27-12.5L374.27-12.5Q374.27-8.95 372.56-5.95 370.87-2.95 368.02-1.18 365.17 0.6 361.81 0.6L361.81 0.6Q360.72 0.6 359.64 0.53 358.56 0.45 358.17 0.4L358.17 0.4 358.22 5.55Q358.22 7.85 358.69 8.68 359.17 9.5 360.56 9.5L360.56 9.5 362.27 9.45 362.37 9.6 361.97 11.5 357.22 11.5Q355.42 11.5 353.89 11.65 352.37 11.8 351.92 11.85L351.92 11.85ZM363.22-2.15Q366.56-2.15 368.49-4.42 370.42-6.7 370.42-10.65L370.42-10.65Q370.42-13.15 369.54-15.2 368.67-17.25 367.14-18.45 365.62-19.65 363.81-19.65L363.81-19.65Q362.81-19.65 361.37-18.98 359.92-18.3 358.62-17.2L358.62-17.2Q358.22-10.65 358.22-3.1L358.22-3.1Q359.22-2.7 360.59-2.43 361.97-2.15 363.22-2.15L363.22-2.15ZM378.31 11.85L378.56 9.9Q379.66 9.75 380.19 9.45 380.71 9.15 380.91 8.45 381.11 7.75 381.11 6.3L381.11 6.3Q381.11 4.2 381.16 2.7L381.16 2.7 381.21-2 381.21-16.9Q381.21-18.6 380.66-19.28 380.11-19.95 378.76-19.95L378.76-19.95 378.21-19.95 378.06-20.15 378.21-21.8Q380.36-22.15 382.49-22.63 384.61-23.1 385.21-23.25L385.21-23.25 385.51-22.85Q385.46-22.6 385.29-21.78 385.11-20.95 385.01-20.15L385.01-20.15 385.21-19.8Q389.91-23.05 391.01-23.05L391.01-23.05Q393.86-23.05 396.06-21.73 398.26-20.4 399.46-18 400.66-15.6 400.66-12.5L400.66-12.5Q400.66-8.95 398.96-5.95 397.26-2.95 394.41-1.18 391.56 0.6 388.21 0.6L388.21 0.6Q387.11 0.6 386.04 0.53 384.96 0.45 384.56 0.4L384.56 0.4 384.61 5.55Q384.61 7.85 385.09 8.68 385.56 9.5 386.96 9.5L386.96 9.5 388.66 9.45 388.76 9.6 388.36 11.5 383.61 11.5Q381.81 11.5 380.29 11.65 378.76 11.8 378.31 11.85L378.31 11.85ZM389.61-2.15Q392.96-2.15 394.89-4.42 396.81-6.7 396.81-10.65L396.81-10.65Q396.81-13.15 395.94-15.2 395.06-17.25 393.54-18.45 392.01-19.65 390.21-19.65L390.21-19.65Q389.21-19.65 387.76-18.98 386.31-18.3 385.01-17.2L385.01-17.2Q384.61-10.65 384.61-3.1L384.61-3.1Q385.61-2.7 386.99-2.43 388.36-2.15 389.61-2.15L389.61-2.15Z" opacity="1" transform="matrix(1,0,0,1,0,0)" fill="#f9f6ed" class="wordmark-text-0" data-fill-palette-color="primary" id="text-0"></path></svg></g></svg></g></svg></g></svg></g><g transform="matrix(1,0,0,1,166.73648060195632,0)"><svg viewBox="0 0 64.02463879608727 64.02463879608727" height="64.02463879608727" width="64.02463879608727"><g><svg xmlns="http://www.w3.org/2000/svg" xml:space="preserve" viewBox="28.2 28.2 43.599999999999994 43.599999999999994" x="0" y="0" height="64.02463879608727" width="64.02463879608727" class="icon-icon-0" data-fill-palette-color="accent" id="icon-0"><path d="M65 71.8H35c-3.8 0-6.8-3.1-6.8-6.8V35c0-3.8 3.1-6.8 6.8-6.8h30c3.8 0 6.8 3.1 6.8 6.8v30c0 3.8-3 6.8-6.8 6.8M35 30.2c-2.7 0-4.8 2.2-4.8 4.8v30c0 2.7 2.2 4.8 4.8 4.8h30c2.7 0 4.8-2.2 4.8-4.8V35c0-2.7-2.2-4.8-4.8-4.8z" fill="#c5d0d2" data-fill-palette-color="accent"></path><path d="M53.2 63.4h-6.5c-1.1 0-2-0.9-2-2v-6.1h-6.1c-1.1 0-2-0.9-2-2v-6.5c0-1.1 0.9-2 2-2h6.1v-6.1c0-1.1 0.9-2 2-2h6.5c1.1 0 2 0.9 2 2v6.1h6.1c1.1 0 2 0.9 2 2v6.5c0 1.1-0.9 2-2 2h-6.1v6.1c0 1.1-0.9 2-2 2m0-2v1zM38.6 46.8v6.5h7.1c0.6 0 1 0.4 1 1v7.1h6.5v-7.1c0-0.6 0.4-1 1-1h7.1v-6.5h-7.1c-0.6 0-1-0.4-1-1v-7.1h-6.5v7.1c0 0.6-0.4 1-1 1z" fill="#c5d0d2" data-fill-palette-color="accent"></path></svg></g></svg></g><g></g></svg></g><defs></defs></svg><rect width="395.52" height="145.3233162576837" fill="none" stroke="none" visibility="hidden"></rect></g></svg></g></svg>